<svg width="1528" height="477" viewBox="0 0 1528 477" fill="none" xmlns="http://www.w3.org/2000/svg">
<rect x="5" y="5" width="1518" height="467" fill="#6B0D42" stroke="#6B0D42" stroke-width="10"></rect>
<path d="M534.661 199H510.668V102.775H474.51V78.6972H570.736V102.775H534.661V199ZM603.957 199H581.054V73.4119H603.957V113.093C606.698 111.024 609.522 109.57 612.43 108.731C615.339 107.836 618.303 107.389 621.323 107.389C626.86 107.389 632.061 108.451 636.927 110.577C641.793 112.646 646.016 115.526 649.595 119.218C653.231 122.853 656.083 127.132 658.152 132.053C660.278 136.919 661.34 142.12 661.34 147.657V199H638.27V147.657H638.437C638.437 145.308 637.99 143.099 637.095 141.03C636.2 138.905 634.97 137.059 633.404 135.493C631.838 133.927 630.02 132.696 627.951 131.802C625.881 130.907 623.672 130.459 621.323 130.459C618.918 130.459 616.653 130.907 614.528 131.802C612.403 132.696 610.557 133.927 608.991 135.493C607.425 137.059 606.194 138.905 605.3 141.03C604.405 143.099 603.957 145.308 603.957 147.657V199ZM713.438 177.02C714.333 177.3 715.228 177.495 716.122 177.607C717.017 177.663 717.912 177.691 718.807 177.691C721.044 177.691 723.197 177.384 725.267 176.768C727.336 176.153 729.266 175.286 731.055 174.168C732.901 172.993 734.523 171.595 735.921 169.973C737.375 168.295 738.55 166.449 739.445 164.436L756.223 181.299C754.098 184.319 751.637 187.031 748.841 189.436C746.1 191.841 743.108 193.883 739.864 195.56C736.676 197.238 733.293 198.497 729.713 199.336C726.19 200.23 722.554 200.678 718.807 200.678C712.487 200.678 706.531 199.503 700.938 197.154C695.401 194.805 690.535 191.534 686.34 187.339C682.202 183.144 678.93 178.167 676.525 172.406C674.12 166.589 672.917 160.213 672.917 153.278C672.917 146.175 674.12 139.688 676.525 133.815C678.93 127.942 682.202 122.937 686.34 118.798C690.535 114.659 695.401 111.443 700.938 109.15C706.531 106.857 712.487 105.711 718.807 105.711C722.554 105.711 726.218 106.158 729.797 107.053C733.376 107.948 736.76 109.234 739.948 110.912C743.192 112.59 746.212 114.659 749.009 117.12C751.805 119.525 754.266 122.238 756.391 125.258L713.438 177.02ZM725.183 129.788C724.12 129.397 723.058 129.145 721.995 129.033C720.988 128.921 719.926 128.865 718.807 128.865C715.675 128.865 712.711 129.453 709.914 130.627C707.174 131.746 704.769 133.368 702.7 135.493C700.686 137.618 699.092 140.191 697.918 143.211C696.743 146.175 696.156 149.531 696.156 153.278C696.156 154.117 696.184 155.068 696.24 156.131C696.352 157.193 696.491 158.284 696.659 159.402C696.883 160.465 697.135 161.5 697.414 162.506C697.694 163.513 698.057 164.408 698.505 165.191L725.183 129.788ZM914.614 186.668C909.021 191.478 902.757 195.169 895.822 197.742C888.887 200.314 881.7 201.601 874.261 201.601C868.556 201.601 863.047 200.846 857.734 199.336C852.477 197.881 847.527 195.812 842.885 193.127C838.299 190.387 834.104 187.115 830.301 183.312C826.498 179.509 823.226 175.314 820.486 170.728C817.801 166.086 815.704 161.136 814.194 155.879C812.739 150.566 812.012 145.057 812.012 139.352C812.012 133.647 812.739 128.138 814.194 122.825C815.704 117.512 817.801 112.562 820.486 107.976C823.226 103.334 826.498 99.1112 830.301 95.308C834.104 91.5049 838.299 88.261 842.885 85.5764C847.527 82.8359 852.477 80.7386 857.734 79.2844C863.047 77.7743 868.556 77.0193 874.261 77.0193C881.7 77.0193 888.887 78.3057 895.822 80.8784C902.757 83.3952 909.021 87.0865 914.614 91.9523L901.862 112.926C898.338 109.122 894.172 106.214 889.362 104.201C884.552 102.131 879.518 101.097 874.261 101.097C868.948 101.097 863.97 102.103 859.328 104.117C854.686 106.13 850.631 108.871 847.164 112.338C843.696 115.75 840.956 119.805 838.942 124.503C836.929 129.145 835.922 134.095 835.922 139.352C835.922 144.609 836.929 149.559 838.942 154.201C840.956 158.787 843.696 162.814 847.164 166.282C850.631 169.749 854.686 172.49 859.328 174.503C863.97 176.517 868.948 177.523 874.261 177.523C879.518 177.523 884.552 176.517 889.362 174.503C894.172 172.434 898.338 169.498 901.862 165.694L914.614 186.668ZM949.262 199H926.191V73.4119H949.262V199ZM1002.53 177.02C1003.43 177.3 1004.32 177.495 1005.22 177.607C1006.11 177.663 1007.01 177.691 1007.9 177.691C1010.14 177.691 1012.29 177.384 1014.36 176.768C1016.43 176.153 1018.36 175.286 1020.15 174.168C1022 172.993 1023.62 171.595 1025.02 169.973C1026.47 168.295 1027.65 166.449 1028.54 164.436L1045.32 181.299C1043.19 184.319 1040.73 187.031 1037.94 189.436C1035.2 191.841 1032.2 193.883 1028.96 195.56C1025.77 197.238 1022.39 198.497 1018.81 199.336C1015.29 200.23 1011.65 200.678 1007.9 200.678C1001.58 200.678 995.627 199.503 990.034 197.154C984.497 194.805 979.631 191.534 975.436 187.339C971.298 183.144 968.026 178.167 965.621 172.406C963.216 166.589 962.013 160.213 962.013 153.278C962.013 146.175 963.216 139.688 965.621 133.815C968.026 127.942 971.298 122.937 975.436 118.798C979.631 114.659 984.497 111.443 990.034 109.15C995.627 106.857 1001.58 105.711 1007.9 105.711C1011.65 105.711 1015.31 106.158 1018.89 107.053C1022.47 107.948 1025.86 109.234 1029.04 110.912C1032.29 112.59 1035.31 114.659 1038.1 117.12C1040.9 119.525 1043.36 122.238 1045.49 125.258L1002.53 177.02ZM1014.28 129.788C1013.22 129.397 1012.15 129.145 1011.09 129.033C1010.08 128.921 1009.02 128.865 1007.9 128.865C1004.77 128.865 1001.81 129.453 999.01 130.627C996.27 131.746 993.865 133.368 991.795 135.493C989.782 137.618 988.188 140.191 987.014 143.211C985.839 146.175 985.252 149.531 985.252 153.278C985.252 154.117 985.28 155.068 985.336 156.131C985.448 157.193 985.587 158.284 985.755 159.402C985.979 160.465 986.231 161.5 986.51 162.506C986.79 163.513 987.153 164.408 987.601 165.191L1014.28 129.788ZM1143.39 199H1137.85L1128.96 186.668C1126.78 188.625 1124.46 190.471 1122 192.205C1119.59 193.883 1117.05 195.365 1114.36 196.651C1111.68 197.881 1108.91 198.86 1106.06 199.587C1103.26 200.314 1100.41 200.678 1097.5 200.678C1091.18 200.678 1085.22 199.615 1079.63 197.49C1074.09 195.365 1069.23 192.289 1065.03 188.262C1060.9 184.179 1057.62 179.201 1055.22 173.329C1052.81 167.456 1051.61 160.773 1051.61 153.278C1051.61 146.287 1052.81 139.883 1055.22 134.067C1057.62 128.194 1060.9 123.161 1065.03 118.966C1069.23 114.771 1074.09 111.527 1079.63 109.234C1085.22 106.885 1091.18 105.711 1097.5 105.711C1100.41 105.711 1103.29 106.074 1106.14 106.801C1108.99 107.528 1111.76 108.535 1114.45 109.822C1117.13 111.108 1119.68 112.618 1122.08 114.352C1124.54 116.086 1126.84 117.959 1128.96 119.973L1137.85 109.318H1143.39V199ZM1120.32 153.278C1120.32 150.146 1119.7 147.126 1118.47 144.218C1117.3 141.254 1115.68 138.653 1113.61 136.416C1111.54 134.123 1109.11 132.305 1106.31 130.963C1103.57 129.564 1100.63 128.865 1097.5 128.865C1094.37 128.865 1091.4 129.397 1088.61 130.459C1085.87 131.522 1083.46 133.088 1081.39 135.157C1079.38 137.227 1077.79 139.799 1076.61 142.875C1075.44 145.896 1074.85 149.363 1074.85 153.278C1074.85 157.193 1075.44 160.689 1076.61 163.765C1077.79 166.785 1079.38 169.33 1081.39 171.399C1083.46 173.469 1085.87 175.035 1088.61 176.097C1091.4 177.16 1094.37 177.691 1097.5 177.691C1100.63 177.691 1103.57 177.02 1106.31 175.678C1109.11 174.279 1111.54 172.462 1113.61 170.225C1115.68 167.932 1117.3 165.331 1118.47 162.423C1119.7 159.458 1120.32 156.41 1120.32 153.278ZM1183.83 199H1160.92V109.15H1166.46L1174.01 117.875C1177.7 114.52 1181.87 111.947 1186.51 110.157C1191.21 108.311 1196.1 107.389 1201.19 107.389C1206.67 107.389 1211.85 108.451 1216.71 110.577C1221.58 112.646 1225.83 115.526 1229.46 119.218C1233.1 122.853 1235.95 127.132 1238.02 132.053C1240.15 136.919 1241.21 142.12 1241.21 147.657V199H1218.31V147.657C1218.31 145.308 1217.86 143.099 1216.96 141.03C1216.07 138.905 1214.84 137.059 1213.27 135.493C1211.71 133.927 1209.89 132.696 1207.82 131.802C1205.75 130.907 1203.54 130.459 1201.19 130.459C1198.79 130.459 1196.52 130.907 1194.4 131.802C1192.27 132.696 1190.43 133.927 1188.86 135.493C1187.29 137.059 1186.06 138.905 1185.17 141.03C1184.27 143.099 1183.83 145.308 1183.83 147.657V199ZM1284.58 84.7375C1284.58 86.8628 1284.16 88.8482 1283.32 90.6939C1282.54 92.5395 1281.45 94.1615 1280.05 95.5597C1278.65 96.902 1277 97.9926 1275.1 98.8315C1273.26 99.6145 1271.27 100.006 1269.15 100.006C1267.02 100.006 1265.01 99.6145 1263.11 98.8315C1261.26 97.9926 1259.64 96.902 1258.24 95.5597C1256.9 94.1615 1255.81 92.5395 1254.97 90.6939C1254.19 88.8482 1253.79 86.8628 1253.79 84.7375C1253.79 82.6681 1254.19 80.7106 1254.97 78.865C1255.81 76.9634 1256.9 75.3414 1258.24 73.9992C1259.64 72.6009 1261.26 71.5103 1263.11 70.7273C1265.01 69.8884 1267.02 69.4689 1269.15 69.4689C1271.27 69.4689 1273.26 69.8884 1275.1 70.7273C1277 71.5103 1278.65 72.6009 1280.05 73.9992C1281.45 75.3414 1282.54 76.9634 1283.32 78.865C1284.16 80.7106 1284.58 82.6681 1284.58 84.7375ZM1280.64 199H1257.57V109.15H1280.64V199ZM1321.08 199H1298.17V109.15H1303.71L1311.26 117.875C1314.95 114.52 1319.12 111.947 1323.76 110.157C1328.46 108.311 1333.35 107.389 1338.44 107.389C1343.92 107.389 1349.1 108.451 1353.96 110.577C1358.83 112.646 1363.08 115.526 1366.71 119.218C1370.35 122.853 1373.2 127.132 1375.27 132.053C1377.4 136.919 1378.46 142.12 1378.46 147.657V199H1355.56V147.657C1355.56 145.308 1355.11 143.099 1354.21 141.03C1353.32 138.905 1352.09 137.059 1350.52 135.493C1348.96 133.927 1347.14 132.696 1345.07 131.802C1343 130.907 1340.79 130.459 1338.44 130.459C1336.04 130.459 1333.77 130.907 1331.65 131.802C1329.52 132.696 1327.68 133.927 1326.11 135.493C1324.54 137.059 1323.31 138.905 1322.42 141.03C1321.52 143.099 1321.08 145.308 1321.08 147.657V199ZM1458.74 153.278C1458.74 150.146 1458.13 147.126 1456.9 144.218C1455.72 141.254 1454.1 138.653 1452.03 136.416C1449.96 134.123 1447.53 132.305 1444.73 130.963C1441.99 129.564 1439.06 128.865 1435.93 128.865C1432.79 128.865 1429.83 129.397 1427.03 130.459C1424.29 131.522 1421.89 133.088 1419.82 135.157C1417.81 137.227 1416.21 139.799 1415.04 142.875C1413.86 145.896 1413.27 149.363 1413.27 153.278C1413.27 157.025 1413.86 160.409 1415.04 163.429C1416.21 166.394 1417.81 168.938 1419.82 171.064C1421.89 173.189 1424.29 174.839 1427.03 176.013C1429.83 177.132 1432.79 177.691 1435.93 177.691C1439.06 177.691 1441.99 177.02 1444.73 175.678C1447.53 174.279 1449.96 172.462 1452.03 170.225C1454.1 167.932 1455.72 165.331 1456.9 162.423C1458.13 159.458 1458.74 156.41 1458.74 153.278ZM1481.82 187.674C1481.82 193.994 1480.61 199.923 1478.21 205.46C1475.8 210.997 1472.5 215.835 1468.31 219.973C1464.17 224.112 1459.3 227.384 1453.71 229.789C1448.17 232.194 1442.25 233.396 1435.93 233.396L1424.43 233.228V210.326L1435.76 210.493C1439.34 210.493 1442.39 210.018 1444.9 209.067C1447.42 208.172 1449.54 206.914 1451.28 205.292C1453.01 203.726 1454.38 201.908 1455.39 199.839C1456.45 197.77 1457.29 195.588 1457.91 193.295C1457.01 194.749 1455.72 195.952 1454.05 196.903C1452.37 197.798 1450.5 198.525 1448.43 199.084C1446.41 199.699 1444.29 200.119 1442.05 200.342C1439.87 200.566 1437.83 200.678 1435.93 200.678C1429.61 200.678 1423.65 199.587 1418.06 197.406C1412.52 195.225 1407.65 192.121 1403.46 188.094C1399.32 184.011 1396.05 179.033 1393.64 173.161C1391.24 167.288 1390.04 160.661 1390.04 153.278C1390.04 146.511 1391.24 140.219 1393.64 134.402C1396.05 128.586 1399.32 123.552 1403.46 119.301C1407.65 115.051 1412.52 111.723 1418.06 109.318C1423.65 106.913 1429.61 105.711 1435.93 105.711C1438.83 105.711 1441.71 106.074 1444.57 106.801C1447.42 107.528 1450.19 108.535 1452.87 109.822C1455.56 111.108 1458.1 112.618 1460.51 114.352C1462.97 116.086 1465.26 117.959 1467.39 119.973L1476.28 109.318H1481.82V187.674ZM580.551 351.849C580.551 357.386 579.824 362.727 578.37 367.872C576.972 372.962 574.958 377.744 572.33 382.218C569.701 386.636 566.569 390.691 562.933 394.382C559.298 398.018 555.243 401.15 550.769 403.778C546.295 406.407 541.485 408.449 536.339 409.903C531.25 411.301 525.937 412 520.4 412H484.158V291.697H520.4C525.937 291.697 531.25 292.424 536.339 293.878C541.485 295.277 546.295 297.29 550.769 299.919C555.243 302.547 559.298 305.707 562.933 309.399C566.569 313.034 569.701 317.089 572.33 321.563C574.958 325.982 576.972 330.763 578.37 335.909C579.824 340.998 580.551 346.312 580.551 351.849ZM556.474 351.849C556.474 346.871 555.523 342.201 553.621 337.838C551.776 333.476 549.203 329.673 545.903 326.429C542.659 323.129 538.828 320.528 534.41 318.627C530.047 316.725 525.377 315.775 520.4 315.775H508.403V387.923H520.4C525.377 387.923 530.047 387 534.41 385.154C538.828 383.253 542.659 380.68 545.903 377.436C549.203 374.136 551.776 370.305 553.621 365.943C555.523 361.524 556.474 356.826 556.474 351.849ZM629.88 390.02C630.775 390.3 631.67 390.495 632.565 390.607C633.46 390.663 634.355 390.691 635.249 390.691C637.487 390.691 639.64 390.384 641.709 389.768C643.779 389.153 645.708 388.286 647.498 387.168C649.343 385.993 650.965 384.595 652.364 382.973C653.818 381.295 654.992 379.449 655.887 377.436L672.666 394.299C670.54 397.319 668.08 400.031 665.283 402.436C662.543 404.841 659.55 406.883 656.307 408.56C653.119 410.238 649.735 411.497 646.156 412.336C642.632 413.23 638.997 413.678 635.249 413.678C628.929 413.678 622.973 412.503 617.38 410.154C611.843 407.805 606.977 404.534 602.783 400.339C598.644 396.144 595.372 391.167 592.967 385.406C590.562 379.589 589.36 373.213 589.36 366.278C589.36 359.175 590.562 352.688 592.967 346.815C595.372 340.942 598.644 335.937 602.783 331.798C606.977 327.659 611.843 324.443 617.38 322.15C622.973 319.857 628.929 318.711 635.249 318.711C638.997 318.711 642.66 319.158 646.239 320.053C649.819 320.948 653.203 322.234 656.391 323.912C659.634 325.59 662.655 327.659 665.451 330.12C668.247 332.525 670.708 335.238 672.834 338.258L629.88 390.02ZM641.625 342.788C640.563 342.397 639.5 342.145 638.437 342.033C637.431 341.921 636.368 341.865 635.249 341.865C632.117 341.865 629.153 342.453 626.357 343.627C623.616 344.746 621.211 346.368 619.142 348.493C617.128 350.618 615.535 353.191 614.36 356.211C613.186 359.175 612.598 362.531 612.598 366.278C612.598 367.117 612.626 368.068 612.682 369.131C612.794 370.193 612.934 371.284 613.102 372.402C613.325 373.465 613.577 374.5 613.857 375.506C614.136 376.513 614.5 377.408 614.947 378.191L641.625 342.788ZM707.481 446.228H684.411V322.15H689.948L699.092 332.973C701.162 331.015 703.427 329.169 705.887 327.436C708.348 325.702 710.893 324.22 713.522 322.989C716.206 321.703 718.975 320.696 721.827 319.969C724.68 319.242 727.56 318.879 730.468 318.879C736.788 318.879 742.717 320.025 748.254 322.318C753.846 324.555 758.712 327.743 762.851 331.882C767.046 336.021 770.345 341.026 772.75 346.899C775.155 352.715 776.358 359.175 776.358 366.278C776.358 373.661 775.155 380.316 772.75 386.245C770.345 392.117 767.046 397.123 762.851 401.262C758.712 405.344 753.846 408.476 748.254 410.658C742.717 412.839 736.788 413.93 730.468 413.93C728.455 413.93 726.441 413.706 724.428 413.258C722.47 412.811 720.513 412.224 718.555 411.497C716.654 410.714 714.752 409.847 712.851 408.896C711.005 407.945 709.215 406.966 707.481 405.96V446.228ZM753.371 366.278C753.371 362.475 752.756 359.063 751.525 356.043C750.351 353.023 748.729 350.478 746.66 348.409C744.59 346.284 742.157 344.662 739.361 343.543C736.564 342.425 733.6 341.865 730.468 341.865C727.336 341.865 724.372 342.425 721.576 343.543C718.835 344.662 716.43 346.284 714.361 348.409C712.291 350.478 710.641 353.023 709.411 356.043C708.237 359.063 707.649 362.475 707.649 366.278C707.649 369.914 708.237 373.241 709.411 376.262C710.641 379.282 712.291 381.854 714.361 383.98C716.43 386.105 718.835 387.755 721.576 388.929C724.372 390.104 727.336 390.691 730.468 390.691C733.6 390.691 736.564 390.104 739.361 388.929C742.157 387.755 744.59 386.105 746.66 383.98C748.729 381.854 750.351 379.282 751.525 376.262C752.756 373.241 753.371 369.914 753.371 366.278ZM876.107 412H870.57L861.677 399.668C859.496 401.625 857.175 403.471 854.714 405.205C852.309 406.883 849.764 408.365 847.08 409.651C844.395 410.881 841.627 411.86 838.774 412.587C835.978 413.314 833.125 413.678 830.217 413.678C823.897 413.678 817.941 412.615 812.348 410.49C806.811 408.365 801.945 405.289 797.751 401.262C793.612 397.179 790.34 392.201 787.935 386.329C785.53 380.456 784.328 373.773 784.328 366.278C784.328 359.287 785.53 352.883 787.935 347.067C790.34 341.194 793.612 336.161 797.751 331.966C801.945 327.771 806.811 324.527 812.348 322.234C817.941 319.885 823.897 318.711 830.217 318.711C833.125 318.711 836.006 319.074 838.858 319.801C841.711 320.528 844.479 321.535 847.164 322.822C849.848 324.108 852.393 325.618 854.798 327.352C857.259 329.086 859.552 330.959 861.677 332.973L870.57 322.318H876.107V412ZM853.036 366.278C853.036 363.146 852.421 360.126 851.19 357.218C850.016 354.254 848.394 351.653 846.325 349.416C844.255 347.123 841.822 345.305 839.026 343.963C836.285 342.564 833.349 341.865 830.217 341.865C827.085 341.865 824.121 342.397 821.325 343.459C818.584 344.522 816.179 346.088 814.11 348.157C812.096 350.227 810.502 352.799 809.328 355.875C808.153 358.896 807.566 362.363 807.566 366.278C807.566 370.193 808.153 373.689 809.328 376.765C810.502 379.785 812.096 382.33 814.11 384.399C816.179 386.469 818.584 388.035 821.325 389.097C824.121 390.16 827.085 390.691 830.217 390.691C833.349 390.691 836.285 390.02 839.026 388.678C841.822 387.279 844.255 385.462 846.325 383.225C848.394 380.932 850.016 378.331 851.19 375.423C852.421 372.458 853.036 369.41 853.036 366.278ZM916.543 412H893.64V322.15H899.177L906.728 332.805C910.419 329.449 914.614 326.876 919.312 325.087C924.01 323.241 928.876 322.318 933.909 322.318H954.127V345.137H933.909C931.504 345.137 929.239 345.585 927.114 346.479C924.989 347.374 923.143 348.605 921.577 350.171C920.011 351.737 918.78 353.582 917.886 355.708C916.991 357.833 916.543 360.098 916.543 362.503V412ZM1009.83 412C1004.3 412 999.094 410.965 994.228 408.896C989.363 406.771 985.084 403.89 981.393 400.255C977.757 396.564 974.877 392.285 972.752 387.419C970.682 382.553 969.648 377.352 969.648 371.815V345.137H958.49V322.318H969.648V286.412H992.467V322.318H1027.2V345.137H992.467V371.815C992.467 374.22 992.914 376.485 993.809 378.611C994.704 380.68 995.934 382.498 997.5 384.064C999.066 385.63 1000.91 386.888 1003.04 387.839C1005.16 388.734 1007.43 389.181 1009.83 389.181H1027.2V412H1009.83ZM1154.38 412H1131.56V354.953C1131.56 353.387 1131.25 351.905 1130.64 350.506C1130.08 349.108 1129.27 347.878 1128.21 346.815C1127.14 345.752 1125.91 344.941 1124.51 344.382C1123.12 343.767 1121.63 343.459 1120.07 343.459C1118.5 343.459 1117.02 343.767 1115.62 344.382C1114.28 344.941 1113.08 345.752 1112.01 346.815C1111.01 347.878 1110.2 349.108 1109.58 350.506C1109.02 351.905 1108.74 353.387 1108.74 354.953V412H1085.84V354.953C1085.84 353.387 1085.53 351.905 1084.92 350.506C1084.36 349.108 1083.55 347.878 1082.48 346.815C1081.42 345.752 1080.19 344.941 1078.79 344.382C1077.39 343.767 1075.91 343.459 1074.35 343.459C1072.78 343.459 1071.3 343.767 1069.9 344.382C1068.56 344.941 1067.36 345.752 1066.29 346.815C1065.29 347.878 1064.47 349.108 1063.86 350.506C1063.3 351.905 1063.02 353.387 1063.02 354.953V412H1040.12V322.15H1045.65L1051.86 329.03C1055.05 326.345 1058.55 324.276 1062.35 322.822C1066.21 321.311 1070.21 320.556 1074.35 320.556C1078.54 320.556 1082.62 321.339 1086.59 322.905C1090.62 324.471 1094.15 327.184 1097.17 331.043C1098.56 329.141 1100.16 327.52 1101.95 326.177C1103.74 324.835 1105.61 323.744 1107.57 322.905C1109.58 322.067 1111.65 321.479 1113.78 321.144C1115.9 320.752 1118 320.556 1120.07 320.556C1124.82 320.556 1129.27 321.451 1133.41 323.241C1137.6 325.031 1141.24 327.492 1144.31 330.624C1147.45 333.7 1149.91 337.335 1151.7 341.53C1153.49 345.724 1154.38 350.199 1154.38 354.953V412ZM1206.9 390.02C1207.79 390.3 1208.69 390.495 1209.58 390.607C1210.48 390.663 1211.37 390.691 1212.27 390.691C1214.5 390.691 1216.66 390.384 1218.73 389.768C1220.8 389.153 1222.73 388.286 1224.52 387.168C1226.36 385.993 1227.98 384.595 1229.38 382.973C1230.84 381.295 1232.01 379.449 1232.9 377.436L1249.68 394.299C1247.56 397.319 1245.1 400.031 1242.3 402.436C1239.56 404.841 1236.57 406.883 1233.32 408.56C1230.14 410.238 1226.75 411.497 1223.17 412.336C1219.65 413.23 1216.01 413.678 1212.27 413.678C1205.95 413.678 1199.99 412.503 1194.4 410.154C1188.86 407.805 1183.99 404.534 1179.8 400.339C1175.66 396.144 1172.39 391.167 1169.98 385.406C1167.58 379.589 1166.38 373.213 1166.38 366.278C1166.38 359.175 1167.58 352.688 1169.98 346.815C1172.39 340.942 1175.66 335.937 1179.8 331.798C1183.99 327.659 1188.86 324.443 1194.4 322.15C1199.99 319.857 1205.95 318.711 1212.27 318.711C1216.01 318.711 1219.68 319.158 1223.26 320.053C1226.84 320.948 1230.22 322.234 1233.41 323.912C1236.65 325.59 1239.67 327.659 1242.47 330.12C1245.26 332.525 1247.73 335.238 1249.85 338.258L1206.9 390.02ZM1218.64 342.788C1217.58 342.397 1216.52 342.145 1215.45 342.033C1214.45 341.921 1213.39 341.865 1212.27 341.865C1209.13 341.865 1206.17 342.453 1203.37 343.627C1200.63 344.746 1198.23 346.368 1196.16 348.493C1194.15 350.618 1192.55 353.191 1191.38 356.211C1190.2 359.175 1189.62 362.531 1189.62 366.278C1189.62 367.117 1189.64 368.068 1189.7 369.131C1189.81 370.193 1189.95 371.284 1190.12 372.402C1190.34 373.465 1190.59 374.5 1190.87 375.506C1191.15 376.513 1191.52 377.408 1191.96 378.191L1218.64 342.788ZM1284.33 412H1261.43V322.15H1266.97L1274.52 330.875C1278.21 327.52 1282.37 324.947 1287.02 323.157C1291.71 321.311 1296.61 320.389 1301.7 320.389C1307.18 320.389 1312.35 321.451 1317.22 323.577C1322.08 325.646 1326.33 328.526 1329.97 332.218C1333.6 335.853 1336.46 340.132 1338.53 345.053C1340.65 349.919 1341.71 355.12 1341.71 360.657V412H1318.81V360.657C1318.81 358.308 1318.36 356.099 1317.47 354.03C1316.57 351.905 1315.34 350.059 1313.78 348.493C1312.21 346.927 1310.39 345.696 1308.32 344.802C1306.26 343.907 1304.05 343.459 1301.7 343.459C1299.29 343.459 1297.03 343.907 1294.9 344.802C1292.78 345.696 1290.93 346.927 1289.36 348.493C1287.8 350.059 1286.57 351.905 1285.67 354.03C1284.78 356.099 1284.33 358.308 1284.33 360.657V412ZM1401.95 412C1396.41 412 1391.21 410.965 1386.35 408.896C1381.48 406.771 1377.2 403.89 1373.51 400.255C1369.87 396.564 1366.99 392.285 1364.87 387.419C1362.8 382.553 1361.76 377.352 1361.76 371.815V345.137H1350.61V322.318H1361.76V286.412H1384.58V322.318H1419.32V345.137H1384.58V371.815C1384.58 374.22 1385.03 376.485 1385.93 378.611C1386.82 380.68 1388.05 382.498 1389.62 384.064C1391.18 385.63 1393.03 386.888 1395.15 387.839C1397.28 388.734 1399.54 389.181 1401.95 389.181H1419.32V412H1401.95Z" fill="white"></path>
<path fill-rule="evenodd" clip-rule="evenodd" d="M214.104 133.083C177.223 141.412 149.731 148.62 129.509 154.508C105.955 161.365 94.4778 182.704 101.641 207.099C107.565 227.27 116.025 254.379 128.082 290.385C143.125 335.308 154.431 365.937 162.538 386.437C169.512 404.073 185.576 413.191 203.945 410.067C220.568 407.24 243.209 402.844 273.483 396.007C304.385 389.028 327.013 383.172 343.316 378.534C360.389 373.677 370.47 359.13 369.18 340.789C367.64 318.874 364.743 286.121 359.36 237.979C354.809 197.289 350.716 167.957 347.31 147.007C343.645 124.466 326.355 111.879 304.086 115.372C282.891 118.697 253.649 124.152 214.104 133.083ZM119.665 120.683C140.689 114.562 168.888 107.18 206.344 98.7209C246.502 89.6515 276.522 84.0375 298.621 80.5709C340.287 74.035 375.316 99.9629 382.047 141.364C385.567 163.018 389.734 192.947 394.335 234.076C399.755 282.562 402.705 315.814 404.286 338.332C406.7 372.676 386.624 402.841 352.948 412.418C335.92 417.263 312.655 423.274 281.243 430.368C250.468 437.319 227.202 441.847 209.855 444.795C174.782 450.761 142.796 432.213 129.816 399.387C121.426 378.172 109.905 346.933 94.7138 301.566C82.5456 265.227 73.9479 237.692 67.8772 217.019C55.4686 174.762 76.5912 133.224 119.665 120.683Z" fill="white"></path>
<path fill-rule="evenodd" clip-rule="evenodd" d="M246.969 272.459C246.181 271.807 245.4 271.143 244.627 270.472C237.974 264.692 231.869 258.243 226.428 251.197C219.419 242.121 221.629 231.93 228.256 226.317C235.831 219.902 248.216 221.809 254.278 229.66C259.304 236.169 265.095 241.988 271.488 247.011C291.417 262.67 317.175 270.592 343.695 267.573C347.255 267.169 350.83 266.566 354.404 265.759C358.8 264.767 363.058 263.496 367.167 261.969C368.826 261.353 370.54 260.949 372.265 260.745C382.046 259.589 392.197 264.878 394.406 274.662C396.042 281.903 392.727 289.452 385.92 292.393C383.788 293.314 381.624 294.183 379.428 294.997C373.869 297.06 368.108 298.779 362.165 300.121C358.439 300.962 354.714 301.639 350.997 302.158C312.619 307.506 275.17 295.853 246.969 272.459Z" fill="white"></path>
</svg>